<svg xmlns="http://www.w3.org/2000/svg" width="1400" height="900" viewBox="0 0 1400 900">
  <defs>
    <marker id="arrow" markerWidth="10" markerHeight="10" refX="8" refY="3" orient="auto" markerUnits="strokeWidth">
      <path d="M0,0 L0,6 L9,3 z" fill="#667085"/>
    </marker>
    <filter id="shadow" x="-20%" y="-20%" width="140%" height="140%">
      <feDropShadow dx="0" dy="8" stdDeviation="10" flood-color="#0F172A" flood-opacity="0.08"/>
    </filter>
  </defs>
  <rect width="1400" height="900" fill="#F8FAFC"/>
  <g font-family="Apple SD Gothic Neo, Noto Sans KR, Pretendard, Arial, sans-serif">
    <text x="64" y="72" font-size="34" font-weight="800" fill="#172033" text-anchor="start">Sector 01. IMU Dataset Construction</text>
    <text x="64" y="108" font-size="18" font-weight="400" fill="#667085" text-anchor="start">직접 취득 ICCAS 데이터와 공개 SisFall 데이터를 병합한 최종 IMU 낙상 데이터</text>
    <line x1="64" y1="136" x2="1336" y2="136" stroke="#D8DEE9" stroke-width="2"/>
    <g filter="url(#shadow)">
<rect x="82" y="170" width="290" height="150" rx="8" fill="#FFFFFF" stroke="#D8DEE9" opacity="1.0"/>
</g>
<rect x="82" y="170" width="8" height="150" rx="4" fill="#3B82F6" stroke="#3B82F6" opacity="1.0"/>
<text x="110" y="212" font-size="18" font-weight="700" fill="#172033" text-anchor="start">Total IMU Rows</text>
<text x="110" y="258" font-size="32" font-weight="800" fill="#3B82F6" text-anchor="start">349,560</text>
<text x="110" y="290" font-size="14" font-weight="400" fill="#667085" text-anchor="start">전처리 완료 CSV 기준</text>
<g filter="url(#shadow)">
<rect x="402" y="170" width="290" height="150" rx="8" fill="#FFFFFF" stroke="#D8DEE9" opacity="1.0"/>
</g>
<rect x="402" y="170" width="8" height="150" rx="4" fill="#10B981" stroke="#10B981" opacity="1.0"/>
<text x="430" y="212" font-size="18" font-weight="700" fill="#172033" text-anchor="start">Data Sources</text>
<text x="430" y="258" font-size="32" font-weight="800" fill="#10B981" text-anchor="start">2</text>
<text x="430" y="290" font-size="14" font-weight="400" fill="#667085" text-anchor="start">ICCAS 직접 취득 + SisFall 공개</text>
<text x="430" y="308" font-size="14" font-weight="400" fill="#667085" text-anchor="start">데이터</text>
<rect x="82" y="380" width="610" height="420" rx="8" fill="#FFFFFF" stroke="#D8DEE9" opacity="1.0"/>
<text x="86" y="245" font-size="22" font-weight="800" fill="#172033" text-anchor="start">Top labels</text>
<text x="96" y="292" font-size="18" font-weight="600" fill="#172033" text-anchor="start">normal</text>
<text x="370" y="292" font-size="18" font-weight="700" fill="#3B82F6" text-anchor="end">174,800</text>
<line x1="96" y1="308" x2="382" y2="308" stroke="#D8DEE9" stroke-width="2"/>
<text x="96" y="338" font-size="18" font-weight="600" fill="#172033" text-anchor="start">fall</text>
<text x="370" y="338" font-size="18" font-weight="700" fill="#3B82F6" text-anchor="end">152,752</text>
<line x1="96" y1="354" x2="382" y2="354" stroke="#D8DEE9" stroke-width="2"/>
<text x="96" y="384" font-size="18" font-weight="600" fill="#172033" text-anchor="start">wandering</text>
<text x="370" y="384" font-size="18" font-weight="700" fill="#3B82F6" text-anchor="end">12,353</text>
<line x1="96" y1="400" x2="382" y2="400" stroke="#D8DEE9" stroke-width="2"/>
<text x="96" y="430" font-size="18" font-weight="600" fill="#172033" text-anchor="start">walk</text>
<text x="370" y="430" font-size="18" font-weight="700" fill="#3B82F6" text-anchor="end">8,003</text>
<line x1="96" y1="446" x2="382" y2="446" stroke="#D8DEE9" stroke-width="2"/>
<text x="96" y="476" font-size="18" font-weight="600" fill="#172033" text-anchor="start">idle</text>
<text x="370" y="476" font-size="18" font-weight="700" fill="#3B82F6" text-anchor="end">1,001</text>
<line x1="96" y1="492" x2="382" y2="492" stroke="#D8DEE9" stroke-width="2"/>
<text x="96" y="522" font-size="18" font-weight="600" fill="#172033" text-anchor="start">sit</text>
<text x="370" y="522" font-size="18" font-weight="700" fill="#3B82F6" text-anchor="end">651</text>
<line x1="96" y1="538" x2="382" y2="538" stroke="#D8DEE9" stroke-width="2"/>
<rect x="720" y="170" width="600" height="430" rx="8" fill="#FFFFFF" stroke="#D8DEE9" opacity="1.0"/>
<text x="760" y="215" font-size="22" font-weight="800" fill="#172033" text-anchor="start">Source / target composition</text>
<text x="760" y="225" font-size="15" font-weight="600" fill="#172033" text-anchor="start">ICCAS direct: 24,759 rows</text>
<rect x="760" y="235" width="420" height="26" rx="6" fill="#EEF2F7" stroke="#EEF2F7" opacity="1.0"/>
<rect x="760" y="235" width="29.74819773429454" height="26" rx="6" fill="#3B82F6" stroke="#3B82F6" opacity="1.0"/>
<text x="1194" y="258" font-size="15" font-weight="700" fill="#172033" text-anchor="start">0.0708</text>
<text x="760" y="307" font-size="15" font-weight="600" fill="#172033" text-anchor="start">SisFall open: 324,801 rows</text>
<rect x="760" y="317" width="420" height="26" rx="6" fill="#EEF2F7" stroke="#EEF2F7" opacity="1.0"/>
<rect x="760" y="317" width="390.25180226570546" height="26" rx="6" fill="#10B981" stroke="#10B981" opacity="1.0"/>
<text x="1194" y="340" font-size="15" font-weight="700" fill="#172033" text-anchor="start">0.9292</text>
<text x="760" y="389" font-size="15" font-weight="600" fill="#172033" text-anchor="start">Fall target: 152,752 rows</text>
<rect x="760" y="399" width="420" height="26" rx="6" fill="#EEF2F7" stroke="#EEF2F7" opacity="1.0"/>
<rect x="760" y="399" width="183.53312736010986" height="26" rx="6" fill="#F43F5E" stroke="#F43F5E" opacity="1.0"/>
<text x="1194" y="422" font-size="15" font-weight="700" fill="#172033" text-anchor="start">0.4370</text>
<text x="760" y="471" font-size="15" font-weight="600" fill="#172033" text-anchor="start">Non-fall target: 196,808 rows</text>
<rect x="760" y="481" width="420" height="26" rx="6" fill="#EEF2F7" stroke="#EEF2F7" opacity="1.0"/>
<rect x="760" y="481" width="236.46687263989014" height="26" rx="6" fill="#06B6D4" stroke="#06B6D4" opacity="1.0"/>
<text x="1194" y="504" font-size="15" font-weight="700" fill="#172033" text-anchor="start">0.5630</text>
<rect x="720" y="635" width="600" height="165" rx="8" fill="#FFFFFF" stroke="#D8DEE9" opacity="1.0"/>
<text x="760" y="682" font-size="22" font-weight="800" fill="#172033" text-anchor="start">학술적 해석</text>
<text x="760" y="724" font-size="18" font-weight="400" fill="#667085" text-anchor="start">ICCAS는 실제 장비 환경의 normal baseline을 제공하고, SisFall은 다양한 낙상</text>
<text x="760" y="752" font-size="18" font-weight="400" fill="#667085" text-anchor="start">positive pattern을 제공한다. 두 데이터를 병합해 낙상 패턴과 실제 환경 오탐 요인을 함께</text>
<text x="760" y="780" font-size="18" font-weight="400" fill="#667085" text-anchor="start">학습했다.</text>
  </g>
</svg>
