<svg xmlns="http://www.w3.org/2000/svg" width="1400" height="900" viewBox="0 0 1400 900">
  <defs>
    <marker id="arrow" markerWidth="10" markerHeight="10" refX="8" refY="3" orient="auto" markerUnits="strokeWidth">
      <path d="M0,0 L0,6 L9,3 z" fill="#667085"/>
    </marker>
    <filter id="shadow" x="-20%" y="-20%" width="140%" height="140%">
      <feDropShadow dx="0" dy="8" stdDeviation="10" flood-color="#0F172A" flood-opacity="0.08"/>
    </filter>
  </defs>
  <rect width="1400" height="900" fill="#F8FAFC"/>
  <g font-family="Apple SD Gothic Neo, Noto Sans KR, Pretendard, Arial, sans-serif">
    <text x="64" y="72" font-size="34" font-weight="800" fill="#172033" text-anchor="start">Sector 06. Preprocessing Effect</text>
    <text x="64" y="108" font-size="18" font-weight="400" fill="#667085" text-anchor="start">전처리 feature 추가 전/후 모델별 성능 비교</text>
    <line x1="64" y1="136" x2="1336" y2="136" stroke="#D8DEE9" stroke-width="2"/>
    <rect x="78" y="170" width="1245" height="610" rx="8" fill="#FFFFFF" stroke="#D8DEE9" opacity="1.0"/>
<text x="112" y="228" font-size="24" font-weight="800" fill="#172033" text-anchor="start">Effect of preprocessing features</text>
<text x="112" y="300" font-size="20" font-weight="800" fill="#172033" text-anchor="start">RNN</text>
<text x="285" y="270" font-size="15" font-weight="600" fill="#172033" text-anchor="start">F1 before 0.6022</text>
<rect x="285" y="280" width="260" height="22" rx="6" fill="#EEF2F7" stroke="#EEF2F7" opacity="1.0"/>
<rect x="285" y="280" width="156.572" height="22" rx="6" fill="#D7DCE7" stroke="#D7DCE7" opacity="1.0"/>
<text x="559" y="299" font-size="15" font-weight="700" fill="#172033" text-anchor="start">0.6022</text>
<text x="620" y="270" font-size="15" font-weight="600" fill="#172033" text-anchor="start">F1 after 0.6584</text>
<rect x="620" y="280" width="260" height="22" rx="6" fill="#EEF2F7" stroke="#EEF2F7" opacity="1.0"/>
<rect x="620" y="280" width="171.184" height="22" rx="6" fill="#3B82F6" stroke="#3B82F6" opacity="1.0"/>
<text x="894" y="299" font-size="15" font-weight="700" fill="#172033" text-anchor="start">0.6584</text>
<text x="990" y="300" font-size="19" font-weight="800" fill="#10B981" text-anchor="start">Delta +0.0562</text>
<text x="112" y="348" font-size="16" font-weight="700" fill="#667085" text-anchor="start">Recall: 0.6935 -&gt; 0.8333</text>
<text x="112" y="405" font-size="20" font-weight="800" fill="#172033" text-anchor="start">GRU</text>
<text x="285" y="375" font-size="15" font-weight="600" fill="#172033" text-anchor="start">F1 before 0.6898</text>
<rect x="285" y="385" width="260" height="22" rx="6" fill="#EEF2F7" stroke="#EEF2F7" opacity="1.0"/>
<rect x="285" y="385" width="179.34799999999998" height="22" rx="6" fill="#D7DCE7" stroke="#D7DCE7" opacity="1.0"/>
<text x="559" y="404" font-size="15" font-weight="700" fill="#172033" text-anchor="start">0.6898</text>
<text x="620" y="375" font-size="15" font-weight="600" fill="#172033" text-anchor="start">F1 after 0.6878</text>
<rect x="620" y="385" width="260" height="22" rx="6" fill="#EEF2F7" stroke="#EEF2F7" opacity="1.0"/>
<rect x="620" y="385" width="178.828" height="22" rx="6" fill="#10B981" stroke="#10B981" opacity="1.0"/>
<text x="894" y="404" font-size="15" font-weight="700" fill="#172033" text-anchor="start">0.6878</text>
<text x="990" y="405" font-size="19" font-weight="800" fill="#F43F5E" text-anchor="start">Delta -0.0020</text>
<text x="112" y="453" font-size="16" font-weight="700" fill="#667085" text-anchor="start">Recall: 0.8695 -&gt; 0.8590</text>
<text x="112" y="510" font-size="20" font-weight="800" fill="#172033" text-anchor="start">LSTM</text>
<text x="285" y="480" font-size="15" font-weight="600" fill="#172033" text-anchor="start">F1 before 0.6882</text>
<rect x="285" y="490" width="260" height="22" rx="6" fill="#EEF2F7" stroke="#EEF2F7" opacity="1.0"/>
<rect x="285" y="490" width="178.93200000000002" height="22" rx="6" fill="#D7DCE7" stroke="#D7DCE7" opacity="1.0"/>
<text x="559" y="509" font-size="15" font-weight="700" fill="#172033" text-anchor="start">0.6882</text>
<text x="620" y="480" font-size="15" font-weight="600" fill="#172033" text-anchor="start">F1 after 0.6746</text>
<rect x="620" y="490" width="260" height="22" rx="6" fill="#EEF2F7" stroke="#EEF2F7" opacity="1.0"/>
<rect x="620" y="490" width="175.396" height="22" rx="6" fill="#8B5CF6" stroke="#8B5CF6" opacity="1.0"/>
<text x="894" y="509" font-size="15" font-weight="700" fill="#172033" text-anchor="start">0.6746</text>
<text x="990" y="510" font-size="19" font-weight="800" fill="#F43F5E" text-anchor="start">Delta -0.0136</text>
<text x="112" y="558" font-size="16" font-weight="700" fill="#667085" text-anchor="start">Recall: 0.8054 -&gt; 0.8228</text>
<text x="112" y="615" font-size="20" font-weight="800" fill="#172033" text-anchor="start">Transformer</text>
<text x="285" y="585" font-size="15" font-weight="600" fill="#172033" text-anchor="start">F1 before 0.6663</text>
<rect x="285" y="595" width="260" height="22" rx="6" fill="#EEF2F7" stroke="#EEF2F7" opacity="1.0"/>
<rect x="285" y="595" width="173.238" height="22" rx="6" fill="#D7DCE7" stroke="#D7DCE7" opacity="1.0"/>
<text x="559" y="614" font-size="15" font-weight="700" fill="#172033" text-anchor="start">0.6663</text>
<text x="620" y="585" font-size="15" font-weight="600" fill="#172033" text-anchor="start">F1 after 0.7273</text>
<rect x="620" y="595" width="260" height="22" rx="6" fill="#EEF2F7" stroke="#EEF2F7" opacity="1.0"/>
<rect x="620" y="595" width="189.09799999999998" height="22" rx="6" fill="#F59E0B" stroke="#F59E0B" opacity="1.0"/>
<text x="894" y="614" font-size="15" font-weight="700" fill="#172033" text-anchor="start">0.7273</text>
<text x="990" y="615" font-size="19" font-weight="800" fill="#10B981" text-anchor="start">Delta +0.0610</text>
<text x="112" y="663" font-size="16" font-weight="700" fill="#667085" text-anchor="start">Recall: 0.7762 -&gt; 0.7832</text>
<text x="112" y="720" font-size="22" font-weight="800" fill="#172033" text-anchor="start">정확한 해석</text>
<text x="112" y="758" font-size="18" font-weight="400" fill="#667085" text-anchor="start">전처리는 모든 모델에서 항상 성능을 올리지는 않는다. 다만 RNN/Transformer의 F1이 상승했고, 4개 중 3개 모델에서 Recall이 개선되어 낙상 미탐 감소</text>
<text x="112" y="786" font-size="18" font-weight="400" fill="#667085" text-anchor="start">관점의 효과를 확인했다.</text>
  </g>
</svg>
