<svg xmlns="http://www.w3.org/2000/svg" width="1400" height="900" viewBox="0 0 1400 900">
  <defs>
    <marker id="arrow" markerWidth="10" markerHeight="10" refX="8" refY="3" orient="auto" markerUnits="strokeWidth">
      <path d="M0,0 L0,6 L9,3 z" fill="#667085"/>
    </marker>
    <filter id="shadow" x="-20%" y="-20%" width="140%" height="140%">
      <feDropShadow dx="0" dy="8" stdDeviation="10" flood-color="#0F172A" flood-opacity="0.08"/>
    </filter>
  </defs>
  <rect width="1400" height="900" fill="#F8FAFC"/>
  <g font-family="Apple SD Gothic Neo, Noto Sans KR, Pretendard, Arial, sans-serif">
    <text x="64" y="72" font-size="34" font-weight="800" fill="#172033" text-anchor="start">Sector 04. LSTM Training Method</text>
    <text x="64" y="108" font-size="18" font-weight="400" fill="#667085" text-anchor="start">50-step sliding window 기반 IMU 낙상 시계열 학습</text>
    <line x1="64" y1="136" x2="1336" y2="136" stroke="#D8DEE9" stroke-width="2"/>
    <g filter="url(#shadow)">
<rect x="930" y="180" width="290" height="150" rx="8" fill="#FFFFFF" stroke="#D8DEE9" opacity="1.0"/>
</g>
<rect x="930" y="180" width="8" height="150" rx="4" fill="#3B82F6" stroke="#3B82F6" opacity="1.0"/>
<text x="958" y="222" font-size="18" font-weight="700" fill="#172033" text-anchor="start">Sequence</text>
<text x="958" y="268" font-size="32" font-weight="800" fill="#3B82F6" text-anchor="start">50 x 12</text>
<text x="958" y="300" font-size="14" font-weight="400" fill="#667085" text-anchor="start">50 timesteps, 12 IMU</text>
<text x="958" y="318" font-size="14" font-weight="400" fill="#667085" text-anchor="start">features</text>
<g filter="url(#shadow)">
<rect x="930" y="360" width="290" height="150" rx="8" fill="#FFFFFF" stroke="#D8DEE9" opacity="1.0"/>
</g>
<rect x="930" y="360" width="8" height="150" rx="4" fill="#8B5CF6" stroke="#8B5CF6" opacity="1.0"/>
<text x="958" y="402" font-size="18" font-weight="700" fill="#172033" text-anchor="start">Model</text>
<text x="958" y="448" font-size="32" font-weight="800" fill="#8B5CF6" text-anchor="start">Bi-LSTM</text>
<text x="958" y="480" font-size="14" font-weight="400" fill="#667085" text-anchor="start">hidden 64, layers 2,</text>
<text x="958" y="498" font-size="14" font-weight="400" fill="#667085" text-anchor="start">attention pooling</text>
<g filter="url(#shadow)">
<rect x="930" y="540" width="290" height="150" rx="8" fill="#FFFFFF" stroke="#D8DEE9" opacity="1.0"/>
</g>
<rect x="930" y="540" width="8" height="150" rx="4" fill="#10B981" stroke="#10B981" opacity="1.0"/>
<text x="958" y="582" font-size="18" font-weight="700" fill="#172033" text-anchor="start">Training</text>
<text x="958" y="628" font-size="32" font-weight="800" fill="#10B981" text-anchor="start">15 epochs</text>
<text x="958" y="660" font-size="14" font-weight="400" fill="#667085" text-anchor="start">best validation F1</text>
<text x="958" y="678" font-size="14" font-weight="400" fill="#667085" text-anchor="start">observed at epoch 10</text>
<rect x="78" y="180" width="840" height="500" rx="8" fill="#FFFFFF" stroke="#D8DEE9" opacity="1.0"/>
<text x="112" y="232" font-size="24" font-weight="800" fill="#172033" text-anchor="start">Training curve</text>
<line x1="112" y1="260" x2="112" y2="560" stroke="#D8DEE9" stroke-width="2"/>
<line x1="112" y1="560" x2="872" y2="560" stroke="#D8DEE9" stroke-width="2"/>
<polyline points="112.0,260.0 166.3,405.2 220.6,451.0 274.9,480.3 329.1,501.6 383.4,512.3 437.7,523.2 492.0,531.5 546.3,536.4 600.6,539.6 654.9,547.0 709.1,550.0 763.4,554.1 817.7,558.1 872.0,560.0" fill="none" stroke="#F43F5E" stroke-width="4"/>
<polyline points="112.0,317.2 166.3,311.7 220.6,313.2 274.9,315.5 329.1,317.7 383.4,314.4 437.7,307.4 492.0,304.9 546.3,318.1 600.6,301.4 654.9,307.7 709.1,307.5 763.4,305.5 817.7,306.2 872.0,311.6" fill="none" stroke="#3B82F6" stroke-width="4"/>
<text x="140" y="620" font-size="18" font-weight="800" fill="#F43F5E" text-anchor="start">Loss</text>
<text x="230" y="620" font-size="18" font-weight="800" fill="#3B82F6" text-anchor="start">Validation F1</text>
<text x="112" y="714" font-size="22" font-weight="800" fill="#172033" text-anchor="start">Training method</text>
<text x="112" y="756" font-size="18" font-weight="400" fill="#667085" text-anchor="start">Group/chronological split로 train, validation, test를 분리하고, 각 window 안에 fall sample이</text>
<text x="112" y="784" font-size="18" font-weight="400" fill="#667085" text-anchor="start">하나라도 있으면 positive sequence로 라벨링했다.</text>
  </g>
</svg>
