<svg xmlns="http://www.w3.org/2000/svg" width="1180" height="720" viewBox="0 0 1180 720">
<rect width="1180" height="720" rx="18" fill="#f7f5fc"/>
<text x="50" y="46" font-family="Arial, sans-serif" font-size="25" font-weight="700" fill="#25223a">IMU Fall Detection - Preprocessing Effect</text>
<text x="50" y="74" font-family="Arial, sans-serif" font-size="13" fill="#655f78">Before: raw 9-axis IMU / After: raw IMU + accel_norm + gyro_norm + dt_s</text>
<line x1="86" y1="500.0" x2="1066" y2="500.0" stroke="#ded9ee" stroke-width="1"/>
<text x="48" y="504.0" font-family="Arial, sans-serif" font-size="11" fill="#6d6880">0.0</text>
<line x1="86" y1="418.4" x2="1066" y2="418.4" stroke="#ded9ee" stroke-width="1"/>
<text x="48" y="422.4" font-family="Arial, sans-serif" font-size="11" fill="#6d6880">0.2</text>
<line x1="86" y1="336.8" x2="1066" y2="336.8" stroke="#ded9ee" stroke-width="1"/>
<text x="48" y="340.8" font-family="Arial, sans-serif" font-size="11" fill="#6d6880">0.4</text>
<line x1="86" y1="255.2" x2="1066" y2="255.2" stroke="#ded9ee" stroke-width="1"/>
<text x="48" y="259.2" font-family="Arial, sans-serif" font-size="11" fill="#6d6880">0.6</text>
<line x1="86" y1="173.6" x2="1066" y2="173.6" stroke="#ded9ee" stroke-width="1"/>
<text x="48" y="177.6" font-family="Arial, sans-serif" font-size="11" fill="#6d6880">0.8</text>
<line x1="86" y1="92.0" x2="1066" y2="92.0" stroke="#ded9ee" stroke-width="1"/>
<text x="48" y="96.0" font-family="Arial, sans-serif" font-size="11" fill="#6d6880">1.0</text>
<rect x="86" y="92" width="980" height="408" fill="none" stroke="#ded9ee"/>
<rect x="690" y="36" width="12" height="12" fill="#7c8a97"/>
<text x="708" y="46" font-family="Arial, sans-serif" font-size="12" fill="#403a58">F1 before</text>
<rect x="790" y="36" width="12" height="12" fill="#6658e8"/>
<text x="808" y="46" font-family="Arial, sans-serif" font-size="12" fill="#403a58">F1 after</text>
<rect x="890" y="36" width="12" height="12" fill="#b3bac2"/>
<text x="908" y="46" font-family="Arial, sans-serif" font-size="12" fill="#403a58">Recall before</text>
<rect x="1016" y="36" width="12" height="12" fill="#9b8cf5"/>
<text x="1034" y="46" font-family="Arial, sans-serif" font-size="12" fill="#403a58">Recall after</text>
<rect x="104.0" y="254.3" width="34" height="245.7" rx="5" fill="#7c8a97"/>
<text x="121.0" y="247.3" text-anchor="middle" font-family="Arial, sans-serif" font-size="10" fill="#28233d">0.602</text>
<rect x="147.0" y="231.4" width="34" height="268.6" rx="5" fill="#6658e8"/>
<text x="164.0" y="224.4" text-anchor="middle" font-family="Arial, sans-serif" font-size="10" fill="#28233d">0.658</text>
<rect x="190.0" y="217.1" width="34" height="282.9" rx="5" fill="#b3bac2"/>
<text x="207.0" y="210.1" text-anchor="middle" font-family="Arial, sans-serif" font-size="10" fill="#28233d">0.693</text>
<rect x="233.0" y="160.0" width="34" height="340.0" rx="5" fill="#9b8cf5"/>
<text x="250.0" y="153.0" text-anchor="middle" font-family="Arial, sans-serif" font-size="10" fill="#28233d">0.833</text>
<text x="182.0" y="532" text-anchor="middle" font-family="Arial, sans-serif" font-size="15" font-weight="700" fill="#25223a">RNN</text>
<text x="182.0" y="553" text-anchor="middle" font-family="Arial, sans-serif" font-size="12" fill="#239a61">F1 delta +0.056</text>
<rect x="360.0" y="218.6" width="34" height="281.4" rx="5" fill="#7c8a97"/>
<text x="377.0" y="211.6" text-anchor="middle" font-family="Arial, sans-serif" font-size="10" fill="#28233d">0.690</text>
<rect x="403.0" y="219.4" width="34" height="280.6" rx="5" fill="#6658e8"/>
<text x="420.0" y="212.4" text-anchor="middle" font-family="Arial, sans-serif" font-size="10" fill="#28233d">0.688</text>
<rect x="446.0" y="145.3" width="34" height="354.7" rx="5" fill="#b3bac2"/>
<text x="463.0" y="138.3" text-anchor="middle" font-family="Arial, sans-serif" font-size="10" fill="#28233d">0.869</text>
<rect x="489.0" y="149.5" width="34" height="350.5" rx="5" fill="#9b8cf5"/>
<text x="506.0" y="142.5" text-anchor="middle" font-family="Arial, sans-serif" font-size="10" fill="#28233d">0.859</text>
<text x="438.0" y="532" text-anchor="middle" font-family="Arial, sans-serif" font-size="15" font-weight="700" fill="#25223a">GRU</text>
<text x="438.0" y="553" text-anchor="middle" font-family="Arial, sans-serif" font-size="12" fill="#cf4b54">F1 delta -0.002</text>
<rect x="616.0" y="219.2" width="34" height="280.8" rx="5" fill="#7c8a97"/>
<text x="633.0" y="212.2" text-anchor="middle" font-family="Arial, sans-serif" font-size="10" fill="#28233d">0.688</text>
<rect x="659.0" y="224.8" width="34" height="275.2" rx="5" fill="#6658e8"/>
<text x="676.0" y="217.8" text-anchor="middle" font-family="Arial, sans-serif" font-size="10" fill="#28233d">0.675</text>
<rect x="702.0" y="171.4" width="34" height="328.6" rx="5" fill="#b3bac2"/>
<text x="719.0" y="164.4" text-anchor="middle" font-family="Arial, sans-serif" font-size="10" fill="#28233d">0.805</text>
<rect x="745.0" y="164.3" width="34" height="335.7" rx="5" fill="#9b8cf5"/>
<text x="762.0" y="157.3" text-anchor="middle" font-family="Arial, sans-serif" font-size="10" fill="#28233d">0.823</text>
<text x="694.0" y="532" text-anchor="middle" font-family="Arial, sans-serif" font-size="15" font-weight="700" fill="#25223a">LSTM</text>
<text x="694.0" y="553" text-anchor="middle" font-family="Arial, sans-serif" font-size="12" fill="#cf4b54">F1 delta -0.014</text>
<rect x="872.0" y="228.1" width="34" height="271.9" rx="5" fill="#7c8a97"/>
<text x="889.0" y="221.1" text-anchor="middle" font-family="Arial, sans-serif" font-size="10" fill="#28233d">0.666</text>
<rect x="915.0" y="203.3" width="34" height="296.7" rx="5" fill="#6658e8"/>
<text x="932.0" y="196.3" text-anchor="middle" font-family="Arial, sans-serif" font-size="10" fill="#28233d">0.727</text>
<rect x="958.0" y="183.3" width="34" height="316.7" rx="5" fill="#b3bac2"/>
<text x="975.0" y="176.3" text-anchor="middle" font-family="Arial, sans-serif" font-size="10" fill="#28233d">0.776</text>
<rect x="1001.0" y="180.4" width="34" height="319.6" rx="5" fill="#9b8cf5"/>
<text x="1018.0" y="173.4" text-anchor="middle" font-family="Arial, sans-serif" font-size="10" fill="#28233d">0.783</text>
<text x="950.0" y="532" text-anchor="middle" font-family="Arial, sans-serif" font-size="15" font-weight="700" fill="#25223a">TRANSFORMER</text>
<text x="950.0" y="553" text-anchor="middle" font-family="Arial, sans-serif" font-size="12" fill="#239a61">F1 delta +0.061</text>
<text x="50" y="548" font-family="Arial, sans-serif" font-size="17" font-weight="700" fill="#25223a">Presentation-safe summary</text>
<rect x="50" y="550" width="500" height="36" rx="8" fill="#ffffff" stroke="#e1dced"/>
<text x="66" y="574" font-family="Arial, sans-serif" font-size="14" fill="#38314d">RNN: F1 0.602-&gt;0.658, Recall 0.693-&gt;0.833</text>
<rect x="590" y="550" width="500" height="36" rx="8" fill="#ffffff" stroke="#e1dced"/>
<text x="606" y="574" font-family="Arial, sans-serif" font-size="14" fill="#38314d">GRU: F1 0.690-&gt;0.688, Recall 0.869-&gt;0.859</text>
<rect x="50" y="598" width="500" height="36" rx="8" fill="#ffffff" stroke="#e1dced"/>
<text x="66" y="622" font-family="Arial, sans-serif" font-size="14" fill="#38314d">LSTM: F1 0.688-&gt;0.675, Recall 0.805-&gt;0.823</text>
<rect x="590" y="598" width="500" height="36" rx="8" fill="#ffffff" stroke="#e1dced"/>
<text x="606" y="622" font-family="Arial, sans-serif" font-size="14" fill="#38314d">TRANSFORMER: F1 0.666-&gt;0.727, Recall 0.776-&gt;0.783</text>
</svg>
